<svg width="262" height="254" viewBox="0 0 262 254" fill="none" xmlns="http://www.w3.org/2000/svg">
<g filter="url(#filter0_d_5229_721)">
<rect x="16" y="8" width="230" height="222" rx="24" fill="white"/>
<rect x="32" y="24" width="202" height="135" rx="24" fill="#D9D9D9"/>
<rect x="32" y="169" width="130" height="24" rx="12" fill="#D0BCFF" fill-opacity="0.5"/>
<path d="M46.0666 185.13C45.5932 185.13 45.1482 185.037 44.7316 184.85C44.3149 184.66 43.9482 184.398 43.6316 184.065C43.3182 183.732 43.0716 183.347 42.8916 182.91C42.7149 182.47 42.6266 182 42.6266 181.5C42.6266 180.997 42.7149 180.527 42.8916 180.09C43.0716 179.65 43.3182 179.265 43.6316 178.935C43.9482 178.602 44.3149 178.342 44.7316 178.155C45.1482 177.965 45.5932 177.87 46.0666 177.87C46.6332 177.87 47.1549 178.002 47.6316 178.265C48.1082 178.525 48.5032 178.873 48.8166 179.31L47.5866 179.975C47.3999 179.755 47.1749 179.58 46.9116 179.45C46.6482 179.317 46.3666 179.25 46.0666 179.25C45.7832 179.25 45.5166 179.308 45.2666 179.425C45.0166 179.542 44.7966 179.703 44.6066 179.91C44.4199 180.117 44.2732 180.355 44.1666 180.625C44.0599 180.895 44.0066 181.187 44.0066 181.5C44.0066 181.81 44.0599 182.102 44.1666 182.375C44.2732 182.645 44.4199 182.883 44.6066 183.09C44.7966 183.293 45.0166 183.455 45.2666 183.575C45.5166 183.692 45.7832 183.75 46.0666 183.75C46.3699 183.75 46.6516 183.683 46.9116 183.55C47.1749 183.417 47.3999 183.24 47.5866 183.02L48.8166 183.69C48.5032 184.123 48.1082 184.472 47.6316 184.735C47.1549 184.998 46.6332 185.13 46.0666 185.13ZM53.9418 185.13C53.4685 185.13 53.0235 185.037 52.6068 184.85C52.1901 184.66 51.8235 184.398 51.5068 184.065C51.1901 183.732 50.9418 183.347 50.7618 182.91C50.5818 182.47 50.4918 182 50.4918 181.5C50.4918 181 50.5818 180.532 50.7618 180.095C50.9418 179.655 51.1901 179.268 51.5068 178.935C51.8235 178.602 52.1901 178.342 52.6068 178.155C53.0235 177.965 53.4685 177.87 53.9418 177.87C54.4185 177.87 54.8651 177.965 55.2818 178.155C55.6985 178.342 56.0651 178.602 56.3818 178.935C56.6985 179.268 56.9451 179.655 57.1218 180.095C57.3018 180.532 57.3918 181 57.3918 181.5C57.3918 182 57.3018 182.47 57.1218 182.91C56.9451 183.347 56.6985 183.732 56.3818 184.065C56.0651 184.398 55.6985 184.66 55.2818 184.85C54.8651 185.037 54.4185 185.13 53.9418 185.13ZM53.9418 183.75C54.2251 183.75 54.4918 183.692 54.7418 183.575C54.9918 183.455 55.2118 183.292 55.4018 183.085C55.5918 182.878 55.7401 182.64 55.8468 182.37C55.9568 182.1 56.0118 181.81 56.0118 181.5C56.0118 181.19 55.9568 180.9 55.8468 180.63C55.7401 180.357 55.5918 180.118 55.4018 179.915C55.2118 179.708 54.9918 179.547 54.7418 179.43C54.4918 179.31 54.2251 179.25 53.9418 179.25C53.6585 179.25 53.3918 179.31 53.1418 179.43C52.8918 179.547 52.6718 179.708 52.4818 179.915C52.2918 180.122 52.1418 180.36 52.0318 180.63C51.9251 180.9 51.8718 181.19 51.8718 181.5C51.8718 181.81 51.9251 182.102 52.0318 182.375C52.1418 182.645 52.2918 182.883 52.4818 183.09C52.6718 183.293 52.8918 183.455 53.1418 183.575C53.3918 183.692 53.6585 183.75 53.9418 183.75ZM59.2699 185V178H60.7599L63.4899 182.505V178H64.8699V185H63.3799L60.6499 180.495V185H59.2699ZM69.6118 185.13C69.2185 185.13 68.8418 185.068 68.4818 184.945C68.1251 184.822 67.8118 184.643 67.5418 184.41C67.2751 184.177 67.0835 183.9 66.9668 183.58L68.2618 183.1C68.3018 183.213 68.3851 183.32 68.5118 183.42C68.6385 183.517 68.7968 183.597 68.9868 183.66C69.1768 183.72 69.3851 183.75 69.6118 183.75C69.8285 183.75 70.0318 183.718 70.2218 183.655C70.4151 183.588 70.5701 183.497 70.6868 183.38C70.8068 183.263 70.8668 183.127 70.8668 182.97C70.8668 182.813 70.8051 182.683 70.6818 182.58C70.5585 182.477 70.4001 182.395 70.2068 182.335C70.0135 182.272 69.8151 182.223 69.6118 182.19C69.1085 182.117 68.6568 181.998 68.2568 181.835C67.8601 181.668 67.5468 181.44 67.3168 181.15C67.0868 180.857 66.9718 180.485 66.9718 180.035C66.9718 179.602 67.0935 179.223 67.3368 178.9C67.5835 178.577 67.9068 178.325 68.3068 178.145C68.7101 177.965 69.1451 177.875 69.6118 177.875C69.9985 177.875 70.3718 177.937 70.7318 178.06C71.0918 178.183 71.4051 178.362 71.6718 178.595C71.9418 178.828 72.1351 179.108 72.2518 179.435L70.9568 179.905C70.9168 179.792 70.8335 179.687 70.7068 179.59C70.5801 179.493 70.4218 179.415 70.2318 179.355C70.0418 179.295 69.8351 179.265 69.6118 179.265C69.3985 179.262 69.1951 179.293 69.0018 179.36C68.8118 179.427 68.6551 179.518 68.5318 179.635C68.4118 179.752 68.3518 179.885 68.3518 180.035C68.3518 180.232 68.4085 180.38 68.5218 180.48C68.6385 180.58 68.7918 180.652 68.9818 180.695C69.1718 180.738 69.3818 180.777 69.6118 180.81C70.0851 180.88 70.5218 181.005 70.9218 181.185C71.3218 181.362 71.6418 181.598 71.8818 181.895C72.1251 182.188 72.2468 182.547 72.2468 182.97C72.2468 183.403 72.1251 183.782 71.8818 184.105C71.6385 184.428 71.3168 184.68 70.9168 184.86C70.5168 185.04 70.0818 185.13 69.6118 185.13ZM77.1859 185.13C76.6259 185.13 76.1325 184.993 75.7059 184.72C75.2825 184.447 74.9509 184.08 74.7109 183.62C74.4742 183.157 74.3559 182.643 74.3559 182.08V178H75.7359V182.08C75.7359 182.383 75.7925 182.662 75.9059 182.915C76.0192 183.168 76.1842 183.372 76.4009 183.525C76.6175 183.675 76.8792 183.75 77.1859 183.75C77.4959 183.75 77.7575 183.675 77.9709 183.525C78.1875 183.375 78.3509 183.173 78.4609 182.92C78.5709 182.667 78.6259 182.387 78.6259 182.08V178H80.0059V182.08C80.0059 182.503 79.9375 182.9 79.8009 183.27C79.6675 183.637 79.4759 183.96 79.2259 184.24C78.9759 184.52 78.6775 184.738 78.3309 184.895C77.9875 185.052 77.6059 185.13 77.1859 185.13ZM82.0648 185V178H83.4448V183.62H86.2648V185H82.0648ZM92.9156 178V179.38H90.8556V185H89.4756V179.38H87.4156V178H92.9156ZM96.2681 178H97.8381L100.378 185H98.9131L98.4931 183.84H95.6131L95.1931 185H93.7281L96.2681 178ZM96.1181 182.46H97.9881L97.0481 179.895L96.1181 182.46ZM102.194 185V178H103.684L106.414 182.505V178H107.794V185H106.304L103.574 180.495V185H102.194ZM115.291 178V179.38H113.231V185H111.851V179.38H109.791V178H115.291ZM120.692 185V178H122.182L124.912 182.505V178H126.292V185H124.802L122.072 180.495V185H120.692ZM130.829 178H132.399L134.939 185H133.474L133.054 183.84H130.174L129.754 185H128.289L130.829 178ZM130.679 182.46H132.549L131.609 179.895L130.679 182.46ZM136.539 185L137.899 178H139.064L140.689 182.285L142.319 178H143.484L144.844 185H143.434L142.659 180.985L141.164 184.93H140.214L138.724 180.985L137.944 185H136.539ZM146.846 185V178H151.276V179.38H148.226V180.56H150.606V181.94H148.226V183.62H151.276V185H146.846Z" fill="#450BC8"/>
<path d="M34.5286 206.862C36.0324 205.358 38.4432 205.314 40 206.73C41.5567 205.314 43.9676 205.358 45.4714 206.862C47.0204 208.411 47.0204 210.922 45.4714 212.471L40.4714 217.471C40.3464 217.596 40.1768 217.667 40 217.667C39.8232 217.667 39.6536 217.596 39.5286 217.471L34.5286 212.471C32.9796 210.922 32.9796 208.411 34.5286 206.862Z" fill="#E72323"/>
<path d="M57.9 208V209.38H55.84V215H54.46V209.38H52.4V208H57.9ZM60.0488 215V208H61.4288V215H60.0488ZM69.0797 208V209.38H67.0197V215H65.6397V209.38H63.5797V208H69.0797ZM71.0785 215V208H72.4585V213.62H75.2785V215H71.0785ZM77.3813 215V208H81.8113V209.38H78.7613V210.56H81.1413V211.94H78.7613V213.62H81.8113V215H77.3813Z" fill="#450BC8"/>
<rect x="139" y="197" width="95" height="22" rx="11" fill="#450BC8"/>
<path d="M149.84 212.13C149.367 212.13 148.922 212.037 148.505 211.85C148.088 211.66 147.722 211.398 147.405 211.065C147.092 210.732 146.845 210.347 146.665 209.91C146.488 209.47 146.4 209 146.4 208.5C146.4 207.997 146.488 207.527 146.665 207.09C146.845 206.65 147.092 206.265 147.405 205.935C147.722 205.602 148.088 205.342 148.505 205.155C148.922 204.965 149.367 204.87 149.84 204.87C150.407 204.87 150.928 205.002 151.405 205.265C151.882 205.525 152.277 205.873 152.59 206.31L151.36 206.975C151.173 206.755 150.948 206.58 150.685 206.45C150.422 206.317 150.14 206.25 149.84 206.25C149.557 206.25 149.29 206.308 149.04 206.425C148.79 206.542 148.57 206.703 148.38 206.91C148.193 207.117 148.047 207.355 147.94 207.625C147.833 207.895 147.78 208.187 147.78 208.5C147.78 208.81 147.833 209.102 147.94 209.375C148.047 209.645 148.193 209.883 148.38 210.09C148.57 210.293 148.79 210.455 149.04 210.575C149.29 210.692 149.557 210.75 149.84 210.75C150.143 210.75 150.425 210.683 150.685 210.55C150.948 210.417 151.173 210.24 151.36 210.02L152.59 210.69C152.277 211.123 151.882 211.472 151.405 211.735C150.928 211.998 150.407 212.13 149.84 212.13ZM157.715 212.13C157.242 212.13 156.797 212.037 156.38 211.85C155.964 211.66 155.597 211.398 155.28 211.065C154.964 210.732 154.715 210.347 154.535 209.91C154.355 209.47 154.265 209 154.265 208.5C154.265 208 154.355 207.532 154.535 207.095C154.715 206.655 154.964 206.268 155.28 205.935C155.597 205.602 155.964 205.342 156.38 205.155C156.797 204.965 157.242 204.87 157.715 204.87C158.192 204.87 158.639 204.965 159.055 205.155C159.472 205.342 159.839 205.602 160.155 205.935C160.472 206.268 160.719 206.655 160.895 207.095C161.075 207.532 161.165 208 161.165 208.5C161.165 209 161.075 209.47 160.895 209.91C160.719 210.347 160.472 210.732 160.155 211.065C159.839 211.398 159.472 211.66 159.055 211.85C158.639 212.037 158.192 212.13 157.715 212.13ZM157.715 210.75C157.999 210.75 158.265 210.692 158.515 210.575C158.765 210.455 158.985 210.292 159.175 210.085C159.365 209.878 159.514 209.64 159.62 209.37C159.73 209.1 159.785 208.81 159.785 208.5C159.785 208.19 159.73 207.9 159.62 207.63C159.514 207.357 159.365 207.118 159.175 206.915C158.985 206.708 158.765 206.547 158.515 206.43C158.265 206.31 157.999 206.25 157.715 206.25C157.432 206.25 157.165 206.31 156.915 206.43C156.665 206.547 156.445 206.708 156.255 206.915C156.065 207.122 155.915 207.36 155.805 207.63C155.699 207.9 155.645 208.19 155.645 208.5C155.645 208.81 155.699 209.102 155.805 209.375C155.915 209.645 156.065 209.883 156.255 210.09C156.445 210.293 156.665 210.455 156.915 210.575C157.165 210.692 157.432 210.75 157.715 210.75ZM163.043 212V205H164.533L167.263 209.505V205H168.643V212H167.153L164.423 207.495V212H163.043ZM173.385 212.13C172.992 212.13 172.615 212.068 172.255 211.945C171.899 211.822 171.585 211.643 171.315 211.41C171.049 211.177 170.857 210.9 170.74 210.58L172.035 210.1C172.075 210.213 172.159 210.32 172.285 210.42C172.412 210.517 172.57 210.597 172.76 210.66C172.95 210.72 173.159 210.75 173.385 210.75C173.602 210.75 173.805 210.718 173.995 210.655C174.189 210.588 174.344 210.497 174.46 210.38C174.58 210.263 174.64 210.127 174.64 209.97C174.64 209.813 174.579 209.683 174.455 209.58C174.332 209.477 174.174 209.395 173.98 209.335C173.787 209.272 173.589 209.223 173.385 209.19C172.882 209.117 172.43 208.998 172.03 208.835C171.634 208.668 171.32 208.44 171.09 208.15C170.86 207.857 170.745 207.485 170.745 207.035C170.745 206.602 170.867 206.223 171.11 205.9C171.357 205.577 171.68 205.325 172.08 205.145C172.484 204.965 172.919 204.875 173.385 204.875C173.772 204.875 174.145 204.937 174.505 205.06C174.865 205.183 175.179 205.362 175.445 205.595C175.715 205.828 175.909 206.108 176.025 206.435L174.73 206.905C174.69 206.792 174.607 206.687 174.48 206.59C174.354 206.493 174.195 206.415 174.005 206.355C173.815 206.295 173.609 206.265 173.385 206.265C173.172 206.262 172.969 206.293 172.775 206.36C172.585 206.427 172.429 206.518 172.305 206.635C172.185 206.752 172.125 206.885 172.125 207.035C172.125 207.232 172.182 207.38 172.295 207.48C172.412 207.58 172.565 207.652 172.755 207.695C172.945 207.738 173.155 207.777 173.385 207.81C173.859 207.88 174.295 208.005 174.695 208.185C175.095 208.362 175.415 208.598 175.655 208.895C175.899 209.188 176.02 209.547 176.02 209.97C176.02 210.403 175.899 210.782 175.655 211.105C175.412 211.428 175.09 211.68 174.69 211.86C174.29 212.04 173.855 212.13 173.385 212.13ZM180.959 212.13C180.399 212.13 179.906 211.993 179.479 211.72C179.056 211.447 178.724 211.08 178.484 210.62C178.248 210.157 178.129 209.643 178.129 209.08V205H179.509V209.08C179.509 209.383 179.566 209.662 179.679 209.915C179.793 210.168 179.958 210.372 180.174 210.525C180.391 210.675 180.653 210.75 180.959 210.75C181.269 210.75 181.531 210.675 181.744 210.525C181.961 210.375 182.124 210.173 182.234 209.92C182.344 209.667 182.399 209.387 182.399 209.08V205H183.779V209.08C183.779 209.503 183.711 209.9 183.574 210.27C183.441 210.637 183.249 210.96 182.999 211.24C182.749 211.52 182.451 211.738 182.104 211.895C181.761 212.052 181.379 212.13 180.959 212.13ZM185.838 212V205H187.218V210.62H190.038V212H185.838ZM196.689 205V206.38H194.629V212H193.249V206.38H191.189V205H196.689ZM202.09 212V205H203.58L206.31 209.505V205H207.69V212H206.2L203.47 207.495V212H202.09ZM213.137 212.13C212.664 212.13 212.219 212.037 211.802 211.85C211.385 211.66 211.019 211.398 210.702 211.065C210.385 210.732 210.137 210.347 209.957 209.91C209.777 209.47 209.687 209 209.687 208.5C209.687 208 209.777 207.532 209.957 207.095C210.137 206.655 210.385 206.268 210.702 205.935C211.019 205.602 211.385 205.342 211.802 205.155C212.219 204.965 212.664 204.87 213.137 204.87C213.614 204.87 214.06 204.965 214.477 205.155C214.894 205.342 215.26 205.602 215.577 205.935C215.894 206.268 216.14 206.655 216.317 207.095C216.497 207.532 216.587 208 216.587 208.5C216.587 209 216.497 209.47 216.317 209.91C216.14 210.347 215.894 210.732 215.577 211.065C215.26 211.398 214.894 211.66 214.477 211.85C214.06 212.037 213.614 212.13 213.137 212.13ZM213.137 210.75C213.42 210.75 213.687 210.692 213.937 210.575C214.187 210.455 214.407 210.292 214.597 210.085C214.787 209.878 214.935 209.64 215.042 209.37C215.152 209.1 215.207 208.81 215.207 208.5C215.207 208.19 215.152 207.9 215.042 207.63C214.935 207.357 214.787 207.118 214.597 206.915C214.407 206.708 214.187 206.547 213.937 206.43C213.687 206.31 213.42 206.25 213.137 206.25C212.854 206.25 212.587 206.31 212.337 206.43C212.087 206.547 211.867 206.708 211.677 206.915C211.487 207.122 211.337 207.36 211.227 207.63C211.12 207.9 211.067 208.19 211.067 208.5C211.067 208.81 211.12 209.102 211.227 209.375C211.337 209.645 211.487 209.883 211.677 210.09C211.867 210.293 212.087 210.455 212.337 210.575C212.587 210.692 212.854 210.75 213.137 210.75ZM219.871 212L218.081 205H219.506L220.646 209.475L221.786 205H223.051L224.191 209.475L225.331 205H226.756L224.976 212H223.416L222.421 208.11L221.431 212H219.871Z" fill="white"/>
</g>
<defs>
<filter id="filter0_d_5229_721" x="0" y="0" width="262" height="254" filterUnits="userSpaceOnUse" color-interpolation-filters="sRGB">
<feFlood flood-opacity="0" result="BackgroundImageFix"/>
<feColorMatrix in="SourceAlpha" type="matrix" values="0 0 0 0 0 0 0 0 0 0 0 0 0 0 0 0 0 0 127 0" result="hardAlpha"/>
<feOffset dy="8"/>
<feGaussianBlur stdDeviation="8"/>
<feComposite in2="hardAlpha" operator="out"/>
<feColorMatrix type="matrix" values="0 0 0 0 0.294118 0 0 0 0 0.203922 0 0 0 0 0.145098 0 0 0 0.05 0"/>
<feBlend mode="normal" in2="BackgroundImageFix" result="effect1_dropShadow_5229_721"/>
<feBlend mode="normal" in="SourceGraphic" in2="effect1_dropShadow_5229_721" result="shape"/>
</filter>
</defs>
</svg>
