<svg width="375" height="301" viewBox="0 0 375 301" fill="none" xmlns="http://www.w3.org/2000/svg">
<g filter="url(#filter0_d_5282_694)">
<rect x="16" y="8" width="343" height="269" rx="24" fill="white" shape-rendering="crispEdges"/>
<rect x="32" y="36" width="8" height="8" rx="4" fill="#89C947"/>
<path d="M44.84 44.5V34.7H48.214C48.7413 34.7 49.2173 34.8307 49.642 35.092C50.0713 35.3533 50.412 35.7057 50.664 36.149C50.9207 36.5923 51.049 37.0823 51.049 37.619C51.049 38.165 50.9183 38.6597 50.657 39.103C50.4003 39.5417 50.0573 39.8917 49.628 40.153C49.1987 40.4143 48.7273 40.545 48.214 40.545H46.296V44.5H44.84ZM46.296 39.089H48.067C48.347 39.089 48.6013 39.019 48.83 38.879C49.0633 38.739 49.2477 38.5523 49.383 38.319C49.523 38.0857 49.593 37.822 49.593 37.528C49.593 37.234 49.523 36.9703 49.383 36.737C49.2477 36.499 49.0633 36.3123 48.83 36.177C48.6013 36.037 48.347 35.967 48.067 35.967H46.296V39.089ZM54.7937 44.682C54.1497 44.682 53.5617 44.5163 53.0297 44.185C52.5023 43.8537 52.08 43.4103 51.7627 42.855C51.45 42.295 51.2937 41.6767 51.2937 41C51.2937 40.4867 51.3847 40.0083 51.5667 39.565C51.7487 39.117 51.9983 38.725 52.3157 38.389C52.6377 38.0483 53.011 37.7823 53.4357 37.591C53.8603 37.3997 54.313 37.304 54.7937 37.304C55.4377 37.304 56.0233 37.4697 56.5507 37.801C57.0827 38.1323 57.505 38.578 57.8177 39.138C58.135 39.698 58.2937 40.3187 58.2937 41C58.2937 41.5087 58.2027 41.9847 58.0207 42.428C57.8387 42.8713 57.5867 43.2633 57.2647 43.604C56.9473 43.94 56.5763 44.2037 56.1517 44.395C55.7317 44.5863 55.279 44.682 54.7937 44.682ZM54.7937 43.226C55.181 43.226 55.5287 43.1233 55.8367 42.918C56.1447 42.7127 56.3873 42.442 56.5647 42.106C56.7467 41.7653 56.8377 41.3967 56.8377 41C56.8377 40.594 56.7443 40.2207 56.5577 39.88C56.3757 39.5393 56.1307 39.2687 55.8227 39.068C55.5147 38.8627 55.1717 38.76 54.7937 38.76C54.411 38.76 54.0633 38.8627 53.7507 39.068C53.4427 39.2733 53.1977 39.5463 53.0157 39.887C52.8383 40.2277 52.7497 40.5987 52.7497 41C52.7497 41.4153 52.843 41.791 53.0297 42.127C53.2163 42.463 53.4637 42.7313 53.7717 42.932C54.0843 43.128 54.425 43.226 54.7937 43.226ZM61.412 44.633C61.0433 44.6097 60.684 44.535 60.334 44.409C59.984 44.283 59.676 44.1127 59.41 43.898C59.1486 43.6787 58.9526 43.422 58.822 43.128L60.061 42.596C60.1216 42.722 60.2266 42.8457 60.376 42.967C60.53 43.0883 60.7096 43.1887 60.915 43.268C61.1203 43.3427 61.335 43.38 61.559 43.38C61.7783 43.38 61.9813 43.3497 62.168 43.289C62.3593 43.2237 62.5156 43.1257 62.637 42.995C62.7583 42.8643 62.819 42.708 62.819 42.526C62.819 42.3207 62.749 42.162 62.609 42.05C62.4736 41.9333 62.3033 41.8447 62.098 41.784C61.8926 41.7233 61.6873 41.665 61.482 41.609C61.0246 41.5063 60.6046 41.3663 60.222 41.189C59.844 41.007 59.543 40.776 59.319 40.496C59.095 40.2113 58.983 39.8637 58.983 39.453C58.983 39.005 59.1043 38.6177 59.347 38.291C59.5896 37.9597 59.907 37.7053 60.299 37.528C60.6956 37.3507 61.118 37.262 61.566 37.262C62.126 37.262 62.6393 37.381 63.106 37.619C63.5726 37.857 63.9296 38.1837 64.177 38.599L63.022 39.285C62.952 39.145 62.847 39.019 62.707 38.907C62.567 38.795 62.4083 38.7063 62.231 38.641C62.0536 38.571 61.8693 38.5313 61.678 38.522C61.44 38.5127 61.2183 38.5407 61.013 38.606C60.8123 38.6667 60.6513 38.7647 60.53 38.9C60.4086 39.0353 60.348 39.208 60.348 39.418C60.348 39.6233 60.4203 39.7773 60.565 39.88C60.7096 39.978 60.8916 40.0573 61.111 40.118C61.335 40.1787 61.5636 40.2463 61.797 40.321C62.2123 40.4517 62.602 40.6127 62.966 40.804C63.33 40.9907 63.624 41.2217 63.848 41.497C64.072 41.7723 64.1793 42.1083 64.17 42.505C64.17 42.9437 64.037 43.3287 63.771 43.66C63.5096 43.9913 63.169 44.2433 62.749 44.416C62.329 44.5887 61.8833 44.661 61.412 44.633ZM68.9246 38.956H67.4546L67.4476 44.5H65.9916L65.9986 38.956H64.8856V37.5H65.9986L65.9916 35.302H67.4476L67.4546 37.5H68.9246V38.956ZM69.9421 37.5H71.3981V44.5H69.9421V37.5ZM70.6841 36.485C70.4601 36.485 70.2734 36.4127 70.1241 36.268C69.9748 36.1233 69.9001 35.9413 69.9001 35.722C69.9001 35.5073 69.9748 35.3277 70.1241 35.183C70.2734 35.0337 70.4578 34.959 70.6771 34.959C70.8918 34.959 71.0738 35.0337 71.2231 35.183C71.3724 35.3277 71.4471 35.5073 71.4471 35.722C71.4471 35.9413 71.3724 36.1233 71.2231 36.268C71.0784 36.4127 70.8988 36.485 70.6841 36.485ZM76.7592 44.5H74.8902L72.3352 37.486H73.8892L75.8212 42.82L77.7602 37.486H79.3072L76.7592 44.5ZM83.0507 44.682C82.4067 44.682 81.8187 44.5163 81.2867 44.185C80.7594 43.8537 80.337 43.4103 80.0197 42.855C79.707 42.295 79.5507 41.6767 79.5507 41C79.5507 40.4867 79.6417 40.0083 79.8237 39.565C80.0057 39.117 80.2554 38.725 80.5727 38.389C80.8947 38.0483 81.268 37.7823 81.6927 37.591C82.1174 37.3997 82.57 37.304 83.0507 37.304C83.5874 37.304 84.0797 37.416 84.5277 37.64C84.9757 37.8593 85.3584 38.165 85.6757 38.557C85.993 38.9443 86.2264 39.3923 86.3757 39.901C86.525 40.405 86.5694 40.9417 86.5087 41.511H81.1117C81.1724 41.833 81.289 42.1247 81.4617 42.386C81.639 42.6427 81.863 42.8457 82.1337 42.995C82.409 43.1443 82.7147 43.2213 83.0507 43.226C83.4054 43.226 83.7274 43.1373 84.0167 42.96C84.3107 42.7827 84.551 42.5377 84.7377 42.225L86.2147 42.568C85.9347 43.1887 85.5124 43.6973 84.9477 44.094C84.383 44.486 83.7507 44.682 83.0507 44.682ZM81.0627 40.398H85.0387C84.992 40.062 84.873 39.7587 84.6817 39.488C84.495 39.2127 84.2594 38.9957 83.9747 38.837C83.6947 38.6737 83.3867 38.592 83.0507 38.592C82.7194 38.592 82.4114 38.6713 82.1267 38.83C81.8467 38.9887 81.6134 39.2057 81.4267 39.481C81.2447 39.7517 81.1234 40.0573 81.0627 40.398Z" fill="#450BC8"/>
<rect x="103" y="36" width="8" height="8" rx="4" fill="#D01010"/>
<path d="M115.84 44.5V34.7H117.415L121.916 41.868V34.7H123.372V44.5H121.797L117.296 37.332V44.5H115.84ZM127.899 44.682C127.255 44.682 126.667 44.5163 126.135 44.185C125.608 43.8537 125.185 43.4103 124.868 42.855C124.555 42.295 124.399 41.6767 124.399 41C124.399 40.4867 124.49 40.0083 124.672 39.565C124.854 39.117 125.104 38.725 125.421 38.389C125.743 38.0483 126.116 37.7823 126.541 37.591C126.966 37.3997 127.418 37.304 127.899 37.304C128.436 37.304 128.928 37.416 129.376 37.64C129.824 37.8593 130.207 38.165 130.524 38.557C130.841 38.9443 131.075 39.3923 131.224 39.901C131.373 40.405 131.418 40.9417 131.357 41.511H125.96C126.021 41.833 126.137 42.1247 126.31 42.386C126.487 42.6427 126.711 42.8457 126.982 42.995C127.257 43.1443 127.563 43.2213 127.899 43.226C128.254 43.226 128.576 43.1373 128.865 42.96C129.159 42.7827 129.399 42.5377 129.586 42.225L131.063 42.568C130.783 43.1887 130.361 43.6973 129.796 44.094C129.231 44.486 128.599 44.682 127.899 44.682ZM125.911 40.398H129.887C129.84 40.062 129.721 39.7587 129.53 39.488C129.343 39.2127 129.108 38.9957 128.823 38.837C128.543 38.6737 128.235 38.592 127.899 38.592C127.568 38.592 127.26 38.6713 126.975 38.83C126.695 38.9887 126.462 39.2057 126.275 39.481C126.093 39.7517 125.972 40.0573 125.911 40.398ZM137.69 37.5H139.146V44.682C139.146 45.1627 139.043 45.606 138.838 46.012C138.637 46.418 138.364 46.768 138.019 47.062C137.673 47.3607 137.277 47.5917 136.829 47.755C136.385 47.9183 135.921 48 135.436 48C134.946 48 134.474 47.895 134.022 47.685C133.569 47.4797 133.17 47.1997 132.825 46.845C132.484 46.4903 132.23 46.089 132.062 45.641L133.399 45.039C133.492 45.3283 133.641 45.585 133.847 45.809C134.057 46.033 134.299 46.2103 134.575 46.341C134.855 46.4717 135.142 46.537 135.436 46.537C135.725 46.537 136.003 46.4903 136.269 46.397C136.539 46.3083 136.78 46.1823 136.99 46.019C137.204 45.8557 137.375 45.6597 137.501 45.431C137.627 45.2023 137.69 44.9527 137.69 44.682V43.499C137.461 43.8537 137.167 44.1407 136.808 44.36C136.448 44.5747 136.031 44.682 135.555 44.682C135.06 44.682 134.593 44.5863 134.155 44.395C133.716 44.2037 133.331 43.94 133 43.604C132.668 43.2633 132.409 42.8713 132.223 42.428C132.036 41.9847 131.943 41.5087 131.943 41C131.943 40.4913 132.036 40.0153 132.223 39.572C132.409 39.124 132.668 38.732 133 38.396C133.331 38.0553 133.716 37.7893 134.155 37.598C134.593 37.4067 135.06 37.311 135.555 37.311C136.031 37.311 136.448 37.4207 136.808 37.64C137.167 37.8547 137.461 38.1417 137.69 38.501V37.5ZM135.569 43.275C135.975 43.275 136.329 43.1723 136.633 42.967C136.936 42.757 137.172 42.4793 137.34 42.134C137.508 41.7887 137.592 41.4107 137.592 41C137.592 40.58 137.505 40.1997 137.333 39.859C137.165 39.5137 136.929 39.2383 136.626 39.033C136.322 38.823 135.97 38.718 135.569 38.718C135.177 38.718 134.817 38.8207 134.491 39.026C134.169 39.2313 133.912 39.5067 133.721 39.852C133.529 40.1973 133.434 40.58 133.434 41C133.434 41.42 133.529 41.8027 133.721 42.148C133.917 42.4933 134.176 42.7687 134.498 42.974C134.824 43.1747 135.181 43.275 135.569 43.275ZM146.009 37.5H147.465V44.5H146.002L145.946 43.485C145.74 43.8443 145.463 44.1337 145.113 44.353C144.763 44.5723 144.35 44.682 143.874 44.682C143.36 44.682 142.877 44.5863 142.425 44.395C141.972 44.199 141.573 43.9283 141.228 43.583C140.887 43.2377 140.621 42.841 140.43 42.393C140.238 41.9403 140.143 41.455 140.143 40.937C140.143 40.4377 140.236 39.9687 140.423 39.53C140.609 39.0867 140.868 38.6993 141.2 38.368C141.531 38.0367 141.914 37.7777 142.348 37.591C142.786 37.3997 143.255 37.304 143.755 37.304C144.263 37.304 144.711 37.4207 145.099 37.654C145.491 37.8827 145.815 38.1767 146.072 38.536L146.009 37.5ZM143.839 43.275C144.249 43.275 144.609 43.1747 144.917 42.974C145.225 42.7687 145.463 42.4933 145.631 42.148C145.803 41.8027 145.89 41.42 145.89 41C145.89 40.5753 145.803 40.1903 145.631 39.845C145.458 39.4997 145.218 39.2267 144.91 39.026C144.606 38.8207 144.249 38.718 143.839 38.718C143.433 38.718 143.062 38.8207 142.726 39.026C142.39 39.2313 142.124 39.5067 141.928 39.852C141.732 40.1973 141.634 40.58 141.634 41C141.634 41.4247 141.734 41.8097 141.935 42.155C142.14 42.4957 142.408 42.7687 142.74 42.974C143.076 43.1747 143.442 43.275 143.839 43.275ZM152.417 38.956H150.947L150.94 44.5H149.484L149.491 38.956H148.378V37.5H149.491L149.484 35.302H150.94L150.947 37.5H152.417V38.956ZM153.435 37.5H154.891V44.5H153.435V37.5ZM154.177 36.485C153.953 36.485 153.766 36.4127 153.617 36.268C153.468 36.1233 153.393 35.9413 153.393 35.722C153.393 35.5073 153.468 35.3277 153.617 35.183C153.766 35.0337 153.951 34.959 154.17 34.959C154.385 34.959 154.567 35.0337 154.716 35.183C154.865 35.3277 154.94 35.5073 154.94 35.722C154.94 35.9413 154.865 36.1233 154.716 36.268C154.571 36.4127 154.392 36.485 154.177 36.485ZM160.252 44.5H158.383L155.828 37.486H157.382L159.314 42.82L161.253 37.486H162.8L160.252 44.5ZM166.544 44.682C165.9 44.682 165.312 44.5163 164.78 44.185C164.252 43.8537 163.83 43.4103 163.513 42.855C163.2 42.295 163.044 41.6767 163.044 41C163.044 40.4867 163.135 40.0083 163.317 39.565C163.499 39.117 163.748 38.725 164.066 38.389C164.388 38.0483 164.761 37.7823 165.186 37.591C165.61 37.3997 166.063 37.304 166.544 37.304C167.08 37.304 167.573 37.416 168.021 37.64C168.469 37.8593 168.851 38.165 169.169 38.557C169.486 38.9443 169.719 39.3923 169.869 39.901C170.018 40.405 170.062 40.9417 170.002 41.511H164.605C164.665 41.833 164.782 42.1247 164.955 42.386C165.132 42.6427 165.356 42.8457 165.627 42.995C165.902 43.1443 166.208 43.2213 166.544 43.226C166.898 43.226 167.22 43.1373 167.51 42.96C167.804 42.7827 168.044 42.5377 168.231 42.225L169.708 42.568C169.428 43.1887 169.005 43.6973 168.441 44.094C167.876 44.486 167.244 44.682 166.544 44.682ZM164.556 40.398H168.532C168.485 40.062 168.366 39.7587 168.175 39.488C167.988 39.2127 167.752 38.9957 167.468 38.837C167.188 38.6737 166.88 38.592 166.544 38.592C166.212 38.592 165.904 38.6713 165.62 38.83C165.34 38.9887 165.106 39.2057 164.92 39.481C164.738 39.7517 164.616 40.0573 164.556 40.398Z" fill="#450BC8"/>
<rect x="230" y="24" width="118" height="32" rx="16" fill="#F7F4F2"/>
<path d="M244.667 35.0002L244.667 33.3335" stroke="#450BC8" stroke-width="1.66667" stroke-linejoin="round"/>
<path d="M251.333 35.0002L251.333 33.3335" stroke="#450BC8" stroke-width="1.66667" stroke-linejoin="round"/>
<path d="M254.667 38.3335H241.333" stroke="#450BC8" stroke-width="1.66667" stroke-linejoin="round"/>
<rect x="240.5" y="35" width="15" height="11.6667" rx="5.83333" stroke="#450BC8" stroke-width="1.66667" stroke-linejoin="round"/>
<rect x="247.167" y="40.8335" width="1.66667" height="1.66667" rx="0.833333" fill="#450BC8"/>
<rect x="250.5" y="40.8335" width="1.66667" height="1.66667" rx="0.833333" fill="#450BC8"/>
<rect x="243.833" y="40.8335" width="1.66667" height="1.66667" rx="0.833333" fill="#450BC8"/>
<path d="M262.84 44.5L264.737 34.7H265.913L268.426 41.301L270.925 34.7H272.101L274.005 44.5H272.521L271.254 37.941L268.909 44.129H267.929L265.591 37.941L264.324 44.5H262.84ZM277.948 44.682C277.304 44.682 276.716 44.5163 276.184 44.185C275.657 43.8537 275.234 43.4103 274.917 42.855C274.604 42.295 274.448 41.6767 274.448 41C274.448 40.4867 274.539 40.0083 274.721 39.565C274.903 39.117 275.153 38.725 275.47 38.389C275.792 38.0483 276.165 37.7823 276.59 37.591C277.015 37.3997 277.467 37.304 277.948 37.304C278.592 37.304 279.178 37.4697 279.705 37.801C280.237 38.1323 280.659 38.578 280.972 39.138C281.289 39.698 281.448 40.3187 281.448 41C281.448 41.5087 281.357 41.9847 281.175 42.428C280.993 42.8713 280.741 43.2633 280.419 43.604C280.102 43.94 279.731 44.2037 279.306 44.395C278.886 44.5863 278.433 44.682 277.948 44.682ZM277.948 43.226C278.335 43.226 278.683 43.1233 278.991 42.918C279.299 42.7127 279.542 42.442 279.719 42.106C279.901 41.7653 279.992 41.3967 279.992 41C279.992 40.594 279.899 40.2207 279.712 39.88C279.53 39.5393 279.285 39.2687 278.977 39.068C278.669 38.8627 278.326 38.76 277.948 38.76C277.565 38.76 277.218 38.8627 276.905 39.068C276.597 39.2733 276.352 39.5463 276.17 39.887C275.993 40.2277 275.904 40.5987 275.904 41C275.904 41.4153 275.997 41.791 276.184 42.127C276.371 42.463 276.618 42.7313 276.926 42.932C277.239 43.128 277.579 43.226 277.948 43.226ZM288.739 40.111V44.5H287.283V40.468C287.283 40.1553 287.206 39.8707 287.052 39.614C286.903 39.3573 286.7 39.1543 286.443 39.005C286.191 38.851 285.906 38.774 285.589 38.774C285.281 38.774 284.999 38.851 284.742 39.005C284.485 39.1543 284.28 39.3573 284.126 39.614C283.972 39.8707 283.895 40.1553 283.895 40.468V44.5H282.439V37.5H283.895V38.242C284.138 37.9527 284.436 37.724 284.791 37.556C285.146 37.388 285.528 37.304 285.939 37.304C286.457 37.304 286.928 37.43 287.353 37.682C287.778 37.934 288.114 38.2723 288.361 38.697C288.613 39.1217 288.739 39.593 288.739 40.111ZM293.692 38.956H292.222L292.215 44.5H290.759L290.766 38.956H289.653V37.5H290.766L290.759 35.302H292.215L292.222 37.5H293.692V38.956ZM301.105 40.111V44.5H299.649V40.468C299.649 40.1553 299.572 39.8707 299.418 39.614C299.269 39.3573 299.066 39.1543 298.809 39.005C298.557 38.851 298.273 38.774 297.955 38.774C297.647 38.774 297.365 38.851 297.108 39.005C296.852 39.1543 296.646 39.3573 296.492 39.614C296.338 39.8707 296.261 40.1553 296.261 40.468V44.5H294.805V34H296.261V38.242C296.504 37.9527 296.803 37.724 297.157 37.556C297.512 37.388 297.895 37.304 298.305 37.304C298.823 37.304 299.295 37.43 299.719 37.682C300.144 37.934 300.48 38.2723 300.727 38.697C300.979 39.1217 301.105 39.593 301.105 40.111ZM302.417 44.5V34H303.873V44.5H302.417ZM309.82 37.5H311.374L307.538 48H305.991L307.258 44.5L304.745 37.5H306.334L307.986 42.505L309.82 37.5Z" fill="#450BC8"/>
<path fill-rule="evenodd" clip-rule="evenodd" d="M333.551 42.1281C334.57 41.3463 335.302 40.2503 335.635 39.0099L334.025 38.5786C333.787 39.4645 333.264 40.2474 332.536 40.8058C331.809 41.3642 330.917 41.6668 330 41.6668C329.083 41.6668 328.191 41.3642 327.463 40.8058C326.736 40.2474 326.213 39.4645 325.975 38.5786L324.365 39.0099C324.698 40.2503 325.43 41.3463 326.449 42.1281C327.468 42.9098 328.716 43.3335 330 43.3335C331.284 43.3335 332.532 42.9098 333.551 42.1281Z" fill="#450BC8"/>
<rect x="32" y="75" width="16" height="137" rx="8" fill="#E5EAD7"/>
<rect x="32" y="196" width="16" height="16" rx="8" fill="#89C947"/>
<rect x="59" y="75" width="16" height="137" rx="8" fill="#E5EAD7"/>
<rect x="59" y="187" width="16" height="25" rx="8" fill="#89C947"/>
<rect x="86" y="75" width="16" height="137" rx="8" fill="#E5EAD7"/>
<rect x="86" y="165" width="16" height="47" rx="8" fill="#89C947"/>
<rect x="113" y="75" width="16" height="137" rx="8" fill="#E5EAD7"/>
<rect x="113" y="132" width="16" height="80" rx="8" fill="#89C947"/>
<rect x="140" y="75" width="16" height="137" rx="8" fill="#E5EAD7"/>
<rect x="140" y="100" width="16" height="112" rx="8" fill="#89C947"/>
<rect x="167" y="75" width="16" height="137" rx="8" fill="#E5EAD7"/>
<rect x="167" y="131" width="16" height="81" rx="8" fill="#89C947"/>
<rect x="194" y="75" width="16" height="137" rx="8" fill="#FFF0EB"/>
<rect x="194" y="196" width="16" height="16" rx="8" fill="#D01010"/>
<rect x="221" y="75" width="16" height="137" rx="8" fill="#FFF0EB"/>
<rect x="221" y="143" width="16" height="69" rx="8" fill="#D01010"/>
<rect x="248" y="75" width="16" height="137" rx="8" fill="#FFF0EB"/>
<rect x="248" y="176" width="16" height="36" rx="8" fill="#D01010"/>
<rect x="275" y="75" width="16" height="137" rx="8" fill="#E5EAD7"/>
<rect x="275" y="164" width="16" height="48" rx="8" fill="#89C947"/>
<rect x="302" y="75" width="16" height="137" rx="8" fill="#E5EAD7"/>
<rect x="302" y="182" width="16" height="30" rx="8" fill="#89C947"/>
<rect x="329" y="75" width="16" height="137" rx="8" fill="#E5EAD7"/>
<rect x="329" y="196" width="16" height="16" rx="8" fill="#89C947"/>
<path d="M37.5 235H333.5" stroke="#D0BCFF"/>
<rect x="33.5" y="231" width="8" height="8" rx="4" fill="#450BC8"/>
<rect x="329.5" y="231" width="8" height="8" rx="4" fill="#450BC8"/>
<path d="M35.63 258.156C35.142 258.156 34.698 258.044 34.298 257.82C33.898 257.592 33.552 257.278 33.26 256.878C32.972 256.478 32.75 256.016 32.594 255.492C32.438 254.964 32.36 254.4 32.36 253.8C32.36 253.2 32.438 252.638 32.594 252.114C32.75 251.586 32.972 251.122 33.26 250.722C33.552 250.322 33.898 250.01 34.298 249.786C34.698 249.558 35.142 249.444 35.63 249.444C36.118 249.444 36.562 249.558 36.962 249.786C37.362 250.01 37.704 250.322 37.988 250.722C38.276 251.122 38.498 251.586 38.654 252.114C38.814 252.638 38.894 253.2 38.894 253.8C38.894 254.4 38.814 254.964 38.654 255.492C38.498 256.016 38.276 256.478 37.988 256.878C37.704 257.278 37.362 257.592 36.962 257.82C36.562 258.044 36.118 258.156 35.63 258.156ZM35.63 256.692C36.058 256.692 36.412 256.556 36.692 256.284C36.972 256.012 37.18 255.656 37.316 255.216C37.452 254.776 37.52 254.304 37.52 253.8C37.52 253.268 37.448 252.784 37.304 252.348C37.16 251.908 36.948 251.558 36.668 251.298C36.388 251.038 36.042 250.908 35.63 250.908C35.306 250.908 35.024 250.988 34.784 251.148C34.548 251.304 34.352 251.518 34.196 251.79C34.04 252.062 33.924 252.372 33.848 252.72C33.772 253.064 33.734 253.424 33.734 253.8C33.734 254.3 33.802 254.772 33.938 255.216C34.078 255.656 34.288 256.012 34.568 256.284C34.852 256.556 35.206 256.692 35.63 256.692ZM40.8739 258L42.4879 255.21C42.0919 255.234 41.7139 255.18 41.3539 255.048C40.9979 254.916 40.6799 254.72 40.3999 254.46C40.1199 254.2 39.8979 253.892 39.7339 253.536C39.5739 253.18 39.4939 252.794 39.4939 252.378C39.4939 251.974 39.5699 251.596 39.7219 251.244C39.8739 250.888 40.0839 250.576 40.3519 250.308C40.6239 250.036 40.9359 249.824 41.2879 249.672C41.6439 249.52 42.0259 249.444 42.4339 249.444C42.9659 249.444 43.4519 249.576 43.8919 249.84C44.3359 250.104 44.6899 250.458 44.9539 250.902C45.2219 251.346 45.3559 251.838 45.3559 252.378C45.3559 252.646 45.3219 252.9 45.2539 253.14C45.1899 253.376 45.0879 253.616 44.9479 253.86L42.5659 258H40.8739ZM42.4219 253.848C42.7099 253.848 42.9639 253.778 43.1839 253.638C43.4079 253.498 43.5819 253.316 43.7059 253.092C43.8299 252.868 43.8919 252.628 43.8919 252.372C43.8919 252.092 43.8239 251.842 43.6879 251.622C43.5519 251.398 43.3719 251.224 43.1479 251.1C42.9239 250.972 42.6859 250.908 42.4339 250.908C42.1459 250.908 41.8899 250.978 41.6659 251.118C41.4459 251.254 41.2719 251.434 41.1439 251.658C41.0159 251.882 40.9519 252.12 40.9519 252.372C40.9519 252.64 41.0159 252.886 41.1439 253.11C41.2759 253.334 41.4519 253.514 41.6719 253.65C41.8959 253.782 42.1459 253.848 42.4219 253.848ZM50.3067 258.156C49.9987 258.156 49.6967 258.104 49.4007 258C49.1087 257.896 48.8427 257.742 48.6027 257.538L49.5387 256.41C49.6267 256.482 49.7347 256.548 49.8627 256.608C49.9907 256.664 50.1387 256.692 50.3067 256.692C50.5267 256.692 50.7267 256.636 50.9067 256.524C51.0867 256.408 51.2307 256.258 51.3387 256.074C51.4507 255.886 51.5067 255.682 51.5067 255.462V249.6H52.9707V255.462C52.9707 255.954 52.8507 256.404 52.6107 256.812C52.3707 257.216 52.0487 257.542 51.6447 257.79C51.2407 258.034 50.7947 258.156 50.3067 258.156ZM58.8187 252H60.2827V258H58.8187L58.7527 257.256C58.5887 257.524 58.3707 257.742 58.0987 257.91C57.8307 258.074 57.5127 258.156 57.1447 258.156C56.7007 258.156 56.2847 258.072 55.8967 257.904C55.5087 257.736 55.1667 257.504 54.8707 257.208C54.5787 256.912 54.3487 256.57 54.1807 256.182C54.0167 255.794 53.9347 255.378 53.9347 254.934C53.9347 254.506 54.0127 254.104 54.1687 253.728C54.3287 253.352 54.5507 253.022 54.8347 252.738C55.1187 252.454 55.4467 252.232 55.8187 252.072C56.1907 251.912 56.5907 251.832 57.0187 251.832C57.4147 251.832 57.7687 251.92 58.0807 252.096C58.3967 252.272 58.6647 252.496 58.8847 252.768L58.8187 252ZM57.1087 256.746C57.4207 256.746 57.6967 256.668 57.9367 256.512C58.1767 256.356 58.3647 256.146 58.5007 255.882C58.6367 255.614 58.7047 255.32 58.7047 255C58.7047 254.676 58.6367 254.382 58.5007 254.118C58.3647 253.85 58.1747 253.638 57.9307 253.482C57.6907 253.326 57.4167 253.248 57.1087 253.248C56.8007 253.248 56.5187 253.328 56.2627 253.488C56.0107 253.644 55.8087 253.854 55.6567 254.118C55.5087 254.382 55.4347 254.676 55.4347 255C55.4347 255.324 55.5107 255.618 55.6627 255.882C55.8147 256.146 56.0167 256.356 56.2687 256.512C56.5247 256.668 56.8047 256.746 57.1087 256.746ZM66.8543 254.208V258H65.3903V254.592C65.3903 254.356 65.3323 254.142 65.2163 253.95C65.1003 253.754 64.9443 253.6 64.7483 253.488C64.5563 253.372 64.3423 253.314 64.1063 253.314C63.8703 253.314 63.6543 253.372 63.4583 253.488C63.2663 253.6 63.1123 253.754 62.9963 253.95C62.8843 254.142 62.8283 254.356 62.8283 254.592V258H61.3643L61.3583 252H62.8223L62.8283 252.534C63.0323 252.318 63.2763 252.148 63.5603 252.024C63.8443 251.896 64.1503 251.832 64.4783 251.832C64.9143 251.832 65.3123 251.94 65.6723 252.156C66.0323 252.368 66.3183 252.654 66.5303 253.014C66.7463 253.37 66.8543 253.768 66.8543 254.208Z" fill="#450BC8"/>
<path d="M307.23 258.156C306.742 258.156 306.298 258.044 305.898 257.82C305.498 257.592 305.152 257.278 304.86 256.878C304.572 256.478 304.35 256.016 304.194 255.492C304.038 254.964 303.96 254.4 303.96 253.8C303.96 253.2 304.038 252.638 304.194 252.114C304.35 251.586 304.572 251.122 304.86 250.722C305.152 250.322 305.498 250.01 305.898 249.786C306.298 249.558 306.742 249.444 307.23 249.444C307.718 249.444 308.162 249.558 308.562 249.786C308.962 250.01 309.304 250.322 309.588 250.722C309.876 251.122 310.098 251.586 310.254 252.114C310.414 252.638 310.494 253.2 310.494 253.8C310.494 254.4 310.414 254.964 310.254 255.492C310.098 256.016 309.876 256.478 309.588 256.878C309.304 257.278 308.962 257.592 308.562 257.82C308.162 258.044 307.718 258.156 307.23 258.156ZM307.23 256.692C307.658 256.692 308.012 256.556 308.292 256.284C308.572 256.012 308.78 255.656 308.916 255.216C309.052 254.776 309.12 254.304 309.12 253.8C309.12 253.268 309.048 252.784 308.904 252.348C308.76 251.908 308.548 251.558 308.268 251.298C307.988 251.038 307.642 250.908 307.23 250.908C306.906 250.908 306.624 250.988 306.384 251.148C306.148 251.304 305.952 251.518 305.796 251.79C305.64 252.062 305.524 252.372 305.448 252.72C305.372 253.064 305.334 253.424 305.334 253.8C305.334 254.3 305.402 254.772 305.538 255.216C305.678 255.656 305.888 256.012 306.168 256.284C306.452 256.556 306.806 256.692 307.23 256.692ZM312.474 258L314.088 255.21C313.692 255.234 313.314 255.18 312.954 255.048C312.598 254.916 312.28 254.72 312 254.46C311.72 254.2 311.498 253.892 311.334 253.536C311.174 253.18 311.094 252.794 311.094 252.378C311.094 251.974 311.17 251.596 311.322 251.244C311.474 250.888 311.684 250.576 311.952 250.308C312.224 250.036 312.536 249.824 312.888 249.672C313.244 249.52 313.626 249.444 314.034 249.444C314.566 249.444 315.052 249.576 315.492 249.84C315.936 250.104 316.29 250.458 316.554 250.902C316.822 251.346 316.956 251.838 316.956 252.378C316.956 252.646 316.922 252.9 316.854 253.14C316.79 253.376 316.688 253.616 316.548 253.86L314.166 258H312.474ZM314.022 253.848C314.31 253.848 314.564 253.778 314.784 253.638C315.008 253.498 315.182 253.316 315.306 253.092C315.43 252.868 315.492 252.628 315.492 252.372C315.492 252.092 315.424 251.842 315.288 251.622C315.152 251.398 314.972 251.224 314.748 251.1C314.524 250.972 314.286 250.908 314.034 250.908C313.746 250.908 313.49 250.978 313.266 251.118C313.046 251.254 312.872 251.434 312.744 251.658C312.616 251.882 312.552 252.12 312.552 252.372C312.552 252.64 312.616 252.886 312.744 253.11C312.876 253.334 313.052 253.514 313.272 253.65C313.496 253.782 313.746 253.848 314.022 253.848ZM320.683 258V249.6H325.645V251.064H322.147V252.768H325.069V254.232H322.147V258H320.683ZM328.558 258.156C328.006 258.156 327.502 258.014 327.046 257.73C326.594 257.446 326.232 257.064 325.96 256.584C325.692 256.104 325.558 255.574 325.558 254.994C325.558 254.558 325.636 254.15 325.792 253.77C325.948 253.386 326.162 253.05 326.434 252.762C326.71 252.47 327.03 252.242 327.394 252.078C327.758 251.914 328.146 251.832 328.558 251.832C329.026 251.832 329.454 251.932 329.842 252.132C330.234 252.328 330.566 252.598 330.838 252.942C331.11 253.286 331.308 253.678 331.432 254.118C331.556 254.558 331.584 255.018 331.516 255.498H327.13C327.186 255.722 327.278 255.924 327.406 256.104C327.534 256.28 327.696 256.422 327.892 256.53C328.088 256.634 328.31 256.688 328.558 256.692C328.814 256.696 329.046 256.636 329.254 256.512C329.466 256.384 329.642 256.212 329.782 255.996L331.276 256.344C331.032 256.876 330.668 257.312 330.184 257.652C329.7 257.988 329.158 258.156 328.558 258.156ZM327.082 254.4H330.034C329.99 254.16 329.896 253.944 329.752 253.752C329.612 253.556 329.438 253.4 329.23 253.284C329.022 253.168 328.798 253.11 328.558 253.11C328.318 253.11 328.096 253.168 327.892 253.284C327.688 253.396 327.514 253.55 327.37 253.746C327.23 253.938 327.134 254.156 327.082 254.4ZM335.471 251.832C336.055 251.832 336.587 251.974 337.067 252.258C337.547 252.542 337.929 252.924 338.213 253.404C338.497 253.88 338.639 254.408 338.639 254.988C338.639 255.424 338.557 255.834 338.393 256.218C338.229 256.602 338.001 256.94 337.709 257.232C337.421 257.52 337.085 257.746 336.701 257.91C336.321 258.074 335.911 258.156 335.471 258.156C335.095 258.156 334.761 258.072 334.469 257.904C334.181 257.732 333.939 257.51 333.743 257.238V258H332.279V249H333.743V252.75C333.939 252.478 334.181 252.258 334.469 252.09C334.761 251.918 335.095 251.832 335.471 251.832ZM335.453 256.74C335.765 256.74 336.047 256.662 336.299 256.506C336.555 256.346 336.759 256.134 336.911 255.87C337.063 255.606 337.139 255.312 337.139 254.988C337.139 254.668 337.063 254.376 336.911 254.112C336.759 253.844 336.555 253.632 336.299 253.476C336.043 253.32 335.761 253.242 335.453 253.242C335.149 253.242 334.877 253.322 334.637 253.482C334.397 253.638 334.209 253.85 334.073 254.118C333.937 254.382 333.869 254.672 333.869 254.988C333.869 255.312 333.937 255.608 334.073 255.876C334.209 256.14 334.397 256.35 334.637 256.506C334.877 256.662 335.149 256.74 335.453 256.74Z" fill="#450BC8"/>
</g>
<defs>
<filter id="filter0_d_5282_694" x="0" y="0" width="375" height="301" filterUnits="userSpaceOnUse" color-interpolation-filters="sRGB">
<feFlood flood-opacity="0" result="BackgroundImageFix"/>
<feColorMatrix in="SourceAlpha" type="matrix" values="0 0 0 0 0 0 0 0 0 0 0 0 0 0 0 0 0 0 127 0" result="hardAlpha"/>
<feOffset dy="8"/>
<feGaussianBlur stdDeviation="8"/>
<feComposite in2="hardAlpha" operator="out"/>
<feColorMatrix type="matrix" values="0 0 0 0 0.294118 0 0 0 0 0.203922 0 0 0 0 0.145098 0 0 0 0.05 0"/>
<feBlend mode="normal" in2="BackgroundImageFix" result="effect1_dropShadow_5282_694"/>
<feBlend mode="normal" in="SourceGraphic" in2="effect1_dropShadow_5282_694" result="shape"/>
</filter>
</defs>
</svg>
